M48
;Layer_Color=9474304
;FILE_FORMAT=4:4
METRIC,LZ
;TYPE=PLATED
T01F00S00C0.3000
T02F00S00C1.5000
%
T01
X00119Y00118
X00120595Y00137825
X00211Y00144
X00265Y00145
X00275Y00171
X00271Y00212
X00262
X002475Y002185
X00233Y00216
X00225Y00218
X002185Y002375
Y002525
Y002625
X00215Y00278
X00225Y00282
X00227Y00292
X00249Y00289
Y00302
X00248Y00365
X00269Y00363
X00291Y00366
X00313
X00334Y00367
X00326Y00277
X0029Y00262
X00292Y00238
X00283Y0023
X00285Y00218
X00336Y00202
X00187Y00188
X00184Y00177
X00188Y00222
X00146Y00219
X0012Y00244
X00123Y00263
X00122Y00279
X00121Y00294
X0018Y00307
X001815Y002625
X00213Y00366
X00193275Y00423675
X0025Y00096
X00265Y00099
T02
X00065Y00303
X00066Y00354
X0045Y0028
Y0023
Y0018
X0045Y0013
M30
