G04*
G04 #@! TF.GenerationSoftware,Altium Limited,Altium Designer,23.8.1 (32)*
G04*
G04 Layer_Physical_Order=5*
G04 Layer_Color=128*
%FSLAX44Y44*%
%MOMM*%
G71*
G04*
G04 #@! TF.SameCoordinates,A0AAC8ED-579F-4978-B833-FADF31FD8843*
G04*
G04*
G04 #@! TF.FilePolarity,Negative*
G04*
G01*
G75*
%ADD35C,1.0160*%
G04:AMPARAMS|DCode=36|XSize=3.024mm|YSize=3.024mm|CornerRadius=0mm|HoleSize=0mm|Usage=FLASHONLY|Rotation=0.000|XOffset=0mm|YOffset=0mm|HoleType=Round|Shape=Relief|Width=0.254mm|Gap=0.254mm|Entries=4|*
%AMTHD36*
7,0,0,3.0240,2.5160,0.2540,45*
%
%ADD36THD36*%
%ADD37C,2.5160*%
G04:AMPARAMS|DCode=38|XSize=1.824mm|YSize=1.824mm|CornerRadius=0mm|HoleSize=0mm|Usage=FLASHONLY|Rotation=0.000|XOffset=0mm|YOffset=0mm|HoleType=Round|Shape=Relief|Width=0.254mm|Gap=0.254mm|Entries=4|*
%AMTHD38*
7,0,0,1.8240,1.3160,0.2540,45*
%
%ADD38THD38*%
%ADD39C,1.3160*%
D35*
X0Y0D02*
X500000D01*
Y500000D01*
X0D02*
X500000D01*
X0Y0D02*
Y500000D01*
D36*
X450000Y230000D02*
D03*
X65000Y303000D02*
D03*
X450000Y180000D02*
D03*
D37*
Y280000D02*
D03*
X66000Y354000D02*
D03*
X450000Y130000D02*
D03*
D38*
X146000Y219000D02*
D03*
X285000Y218000D02*
D03*
X275000Y171000D02*
D03*
X334000Y367000D02*
D03*
X313000Y366000D02*
D03*
X326000Y277000D02*
D03*
X291000Y366000D02*
D03*
X269000Y363000D02*
D03*
X265000Y99000D02*
D03*
X249000Y289000D02*
D03*
X248000Y365000D02*
D03*
X213000Y366000D02*
D03*
X121000Y294000D02*
D03*
X122000Y279000D02*
D03*
X123000Y263000D02*
D03*
X218500Y252500D02*
D03*
X250000Y96000D02*
D03*
X184000Y177000D02*
D03*
D39*
X120000Y244000D02*
D03*
X211000Y144000D02*
D03*
X292000Y238000D02*
D03*
X336000Y202000D02*
D03*
X193275Y423675D02*
D03*
X249000Y302000D02*
D03*
X271000Y212000D02*
D03*
X283000Y230000D02*
D03*
X233000Y216000D02*
D03*
X215000Y278000D02*
D03*
X119000Y118000D02*
D03*
X227000Y292000D02*
D03*
X225000Y282000D02*
D03*
X181500Y262500D02*
D03*
X120595Y137825D02*
D03*
X180000Y307000D02*
D03*
X187000Y188000D02*
D03*
X265000Y145000D02*
D03*
X188000Y222000D02*
D03*
X290000Y262000D02*
D03*
X262000Y212000D02*
D03*
X225000Y218000D02*
D03*
X247500Y218500D02*
D03*
X218500Y237500D02*
D03*
Y262500D02*
D03*
M02*
