G04*
G04 #@! TF.GenerationSoftware,Altium Limited,Altium Designer,23.8.1 (32)*
G04*
G04 Layer_Physical_Order=4*
G04 Layer_Color=16440176*
%FSLAX44Y44*%
%MOMM*%
G71*
G04*
G04 #@! TF.SameCoordinates,A0AAC8ED-579F-4978-B833-FADF31FD8843*
G04*
G04*
G04 #@! TF.FilePolarity,Positive*
G04*
G01*
G75*
%ADD26C,0.6000*%
%ADD33C,4.0000*%
%ADD34C,0.6000*%
G36*
X343000Y305000D02*
X352658Y157713D01*
X294094Y130000D01*
X182000D01*
Y132000D01*
X257000Y207000D01*
Y208133D01*
X258270Y208659D01*
X259168Y207761D01*
X261005Y207000D01*
X262995D01*
X264832Y207761D01*
X265670Y208599D01*
X266500Y209032D01*
X267330Y208599D01*
X268168Y207761D01*
X270005Y207000D01*
X271995D01*
X273832Y207761D01*
X275239Y209168D01*
X276000Y211005D01*
Y212995D01*
X275239Y214832D01*
X273832Y216239D01*
X271995Y217000D01*
X270005D01*
X268168Y216239D01*
X267330Y215401D01*
X266500Y214968D01*
X265670Y215401D01*
X264832Y216239D01*
X262995Y217000D01*
X261005D01*
X259168Y216239D01*
X258270Y215341D01*
X257000Y215867D01*
Y317000D01*
X112000D01*
X97000Y332000D01*
X41000D01*
Y395000D01*
X80000Y434000D01*
X214000D01*
X343000Y305000D01*
D02*
G37*
%LPC*%
G36*
X213995Y371000D02*
X212005D01*
X210168Y370239D01*
X208761Y368832D01*
X208000Y366995D01*
Y365005D01*
X208761Y363168D01*
X210168Y361761D01*
X212005Y361000D01*
X213995D01*
X215832Y361761D01*
X217239Y363168D01*
X218000Y365005D01*
Y366995D01*
X217239Y368832D01*
X215832Y370239D01*
X213995Y371000D01*
D02*
G37*
G36*
X248995Y370000D02*
X247005D01*
X245168Y369239D01*
X243761Y367832D01*
X243000Y365995D01*
Y364005D01*
X243761Y362168D01*
X245168Y360761D01*
X247005Y360000D01*
X248995D01*
X250832Y360761D01*
X252239Y362168D01*
X253000Y364005D01*
Y365995D01*
X252239Y367832D01*
X250832Y369239D01*
X248995Y370000D01*
D02*
G37*
G36*
X269995Y368000D02*
X268005D01*
X266168Y367239D01*
X264761Y365832D01*
X264000Y363995D01*
Y362005D01*
X264761Y360168D01*
X266168Y358761D01*
X268005Y358000D01*
X269995D01*
X271832Y358761D01*
X273239Y360168D01*
X274000Y362005D01*
Y363995D01*
X273239Y365832D01*
X271832Y367239D01*
X269995Y368000D01*
D02*
G37*
G36*
X326995Y282000D02*
X325005D01*
X323168Y281239D01*
X321761Y279832D01*
X321000Y277995D01*
Y276005D01*
X321761Y274168D01*
X323168Y272761D01*
X325005Y272000D01*
X326995D01*
X328832Y272761D01*
X330239Y274168D01*
X331000Y276005D01*
Y277995D01*
X330239Y279832D01*
X328832Y281239D01*
X326995Y282000D01*
D02*
G37*
G36*
X290995Y267000D02*
X289005D01*
X287168Y266239D01*
X285761Y264832D01*
X285000Y262995D01*
Y261005D01*
X285761Y259168D01*
X287168Y257761D01*
X289005Y257000D01*
X290995D01*
X292832Y257761D01*
X294239Y259168D01*
X295000Y261005D01*
Y262995D01*
X294239Y264832D01*
X292832Y266239D01*
X290995Y267000D01*
D02*
G37*
G36*
X283995Y235000D02*
X282005D01*
X280168Y234239D01*
X278761Y232832D01*
X278000Y230995D01*
Y229005D01*
X278761Y227168D01*
X280168Y225761D01*
X282005Y225000D01*
X283995D01*
X285832Y225761D01*
X287239Y227168D01*
X288000Y229005D01*
Y230995D01*
X287239Y232832D01*
X285832Y234239D01*
X283995Y235000D01*
D02*
G37*
G36*
X285995Y223000D02*
X284005D01*
X282168Y222239D01*
X280761Y220832D01*
X280000Y218995D01*
Y217005D01*
X280761Y215168D01*
X282168Y213761D01*
X284005Y213000D01*
X285995D01*
X287832Y213761D01*
X289239Y215168D01*
X290000Y217005D01*
Y218995D01*
X289239Y220832D01*
X287832Y222239D01*
X285995Y223000D01*
D02*
G37*
G36*
X275995Y176000D02*
X274005D01*
X272168Y175239D01*
X270761Y173832D01*
X270000Y171995D01*
Y170005D01*
X270761Y168168D01*
X272168Y166761D01*
X274005Y166000D01*
X275995D01*
X277832Y166761D01*
X279239Y168168D01*
X280000Y170005D01*
Y171995D01*
X279239Y173832D01*
X277832Y175239D01*
X275995Y176000D01*
D02*
G37*
G36*
X265995Y150000D02*
X264005D01*
X262168Y149239D01*
X260761Y147832D01*
X260000Y145995D01*
Y144005D01*
X260761Y142168D01*
X262168Y140761D01*
X264005Y140000D01*
X265995D01*
X267832Y140761D01*
X269239Y142168D01*
X270000Y144005D01*
Y145995D01*
X269239Y147832D01*
X267832Y149239D01*
X265995Y150000D01*
D02*
G37*
%LPD*%
D26*
X247500Y218500D02*
Y274500D01*
X227000Y292000D02*
X230000D01*
X247500Y274500D01*
D33*
X450000Y230000D02*
D03*
Y280000D02*
D03*
X65000Y303000D02*
D03*
X66000Y354000D02*
D03*
X450000Y180000D02*
D03*
X450000Y130000D02*
D03*
D34*
X146000Y219000D02*
D03*
X120000Y244000D02*
D03*
X285000Y218000D02*
D03*
X275000Y171000D02*
D03*
X334000Y367000D02*
D03*
X313000Y366000D02*
D03*
X326000Y277000D02*
D03*
X291000Y366000D02*
D03*
X269000Y363000D02*
D03*
X265000Y99000D02*
D03*
X249000Y289000D02*
D03*
X248000Y365000D02*
D03*
X213000Y366000D02*
D03*
X121000Y294000D02*
D03*
X122000Y279000D02*
D03*
X123000Y263000D02*
D03*
X218500Y252500D02*
D03*
X250000Y96000D02*
D03*
X184000Y177000D02*
D03*
X211000Y144000D02*
D03*
X292000Y238000D02*
D03*
X336000Y202000D02*
D03*
X193275Y423675D02*
D03*
X249000Y302000D02*
D03*
X271000Y212000D02*
D03*
X283000Y230000D02*
D03*
X233000Y216000D02*
D03*
X215000Y278000D02*
D03*
X119000Y118000D02*
D03*
X227000Y292000D02*
D03*
X225000Y282000D02*
D03*
X181500Y262500D02*
D03*
X120595Y137825D02*
D03*
X180000Y307000D02*
D03*
X187000Y188000D02*
D03*
X265000Y145000D02*
D03*
X188000Y222000D02*
D03*
X290000Y262000D02*
D03*
X262000Y212000D02*
D03*
X225000Y218000D02*
D03*
X247500Y218500D02*
D03*
X218500Y237500D02*
D03*
Y262500D02*
D03*
M02*
