G04*
G04 #@! TF.GenerationSoftware,Altium Limited,Altium Designer,23.8.1 (32)*
G04*
G04 Layer_Color=16711935*
%FSLAX44Y44*%
%MOMM*%
G71*
G04*
G04 #@! TF.SameCoordinates,F9BA51D5-AC74-40FF-A976-F5FAEDCE12CC*
G04*
G04*
G04 #@! TF.FilePolarity,Negative*
G04*
G01*
G75*
%ADD21R,1.5032X1.1032*%
%ADD22R,1.5032X0.9032*%
%ADD23R,1.1032X1.5032*%
%ADD24R,1.1032X2.7032*%
%ADD25C,4.2032*%
%ADD46R,3.4016X3.4016*%
%ADD47R,0.7016X0.3316*%
%ADD48R,0.3316X0.7016*%
%ADD49R,1.1032X1.8032*%
%ADD50R,0.9032X1.5032*%
%ADD51R,2.7032X1.1032*%
D21*
X140000Y262500D02*
D03*
Y243500D02*
D03*
X307000Y216500D02*
D03*
Y235500D02*
D03*
X336000Y236500D02*
D03*
Y217500D02*
D03*
D22*
X306000Y314500D02*
D03*
Y295500D02*
D03*
X187000Y243500D02*
D03*
Y224500D02*
D03*
X163000Y243500D02*
D03*
Y262500D02*
D03*
X207000Y199500D02*
D03*
Y180500D02*
D03*
X230000Y199500D02*
D03*
Y180500D02*
D03*
X253000Y199500D02*
D03*
Y180500D02*
D03*
X307000Y257500D02*
D03*
Y276500D02*
D03*
X224000Y110500D02*
D03*
Y129500D02*
D03*
X271000Y110500D02*
D03*
Y129500D02*
D03*
X352000Y333500D02*
D03*
Y352500D02*
D03*
X329000Y333500D02*
D03*
Y352500D02*
D03*
X306000D02*
D03*
Y333500D02*
D03*
X277000Y348500D02*
D03*
Y329500D02*
D03*
X219000Y330500D02*
D03*
Y349500D02*
D03*
X196000Y330500D02*
D03*
Y349500D02*
D03*
D23*
X158000Y288000D02*
D03*
X139000D02*
D03*
X347500Y298000D02*
D03*
X328500D02*
D03*
D24*
X307500Y180000D02*
D03*
X276500D02*
D03*
D25*
X450000Y230000D02*
D03*
Y280000D02*
D03*
X65000Y303000D02*
D03*
X66000Y354000D02*
D03*
X450000Y180000D02*
D03*
X450000Y130000D02*
D03*
D46*
X250000Y250000D02*
D03*
D47*
X274000Y267500D02*
D03*
Y262500D02*
D03*
Y257500D02*
D03*
Y252500D02*
D03*
Y247500D02*
D03*
Y242500D02*
D03*
Y237500D02*
D03*
Y232500D02*
D03*
X226000D02*
D03*
Y237500D02*
D03*
Y242500D02*
D03*
Y247500D02*
D03*
Y252500D02*
D03*
Y257500D02*
D03*
Y262500D02*
D03*
Y267500D02*
D03*
D48*
X267500Y226000D02*
D03*
X262500D02*
D03*
X257500D02*
D03*
X252500D02*
D03*
X247500D02*
D03*
X242500D02*
D03*
X237500D02*
D03*
X232500D02*
D03*
Y274000D02*
D03*
X237500D02*
D03*
X242500D02*
D03*
X247500D02*
D03*
X252500D02*
D03*
X257500D02*
D03*
X262500D02*
D03*
X267500D02*
D03*
D49*
X133500Y219000D02*
D03*
X164500D02*
D03*
D50*
X179500Y288000D02*
D03*
X198500D02*
D03*
X292500Y127000D02*
D03*
X311500D02*
D03*
D51*
X367000Y248500D02*
D03*
Y217500D02*
D03*
X248000Y317500D02*
D03*
Y348500D02*
D03*
M02*
