G04*
G04 #@! TF.GenerationSoftware,Altium Limited,Altium Designer,23.8.1 (32)*
G04*
G04 Layer_Color=32896*
%FSLAX44Y44*%
%MOMM*%
G71*
G04*
G04 #@! TF.SameCoordinates,F9BA51D5-AC74-40FF-A976-F5FAEDCE12CC*
G04*
G04*
G04 #@! TF.FilePolarity,Positive*
G04*
G01*
G75*
%ADD10C,0.2000*%
%ADD11C,0.2540*%
D10*
X276000Y272000D02*
Y274000D01*
Y224000D02*
Y228000D01*
X272000Y224000D02*
X276000D01*
X224000D02*
X228000D01*
X224000D02*
Y228000D01*
Y272000D02*
Y276000D01*
X228000D01*
X272000D02*
X274000D01*
X276000Y274000D01*
X316000Y288000D02*
Y322000D01*
X296000Y288000D02*
X316000D01*
X296000D02*
Y322000D01*
X316000D01*
X125000Y207000D02*
Y231000D01*
Y207000D02*
X173000D01*
X125000Y231000D02*
X173000D01*
Y207000D02*
Y231000D01*
X177000Y251000D02*
X197000D01*
X177000Y217000D02*
Y251000D01*
X197000Y217000D02*
Y251000D01*
X177000Y217000D02*
X197000D01*
X153000Y236000D02*
X173000D01*
Y270000D01*
X153000Y236000D02*
Y270000D01*
X173000D01*
X150000Y244000D02*
Y271000D01*
X130000Y271000D02*
X150000D01*
X130000Y235000D02*
Y271000D01*
X150000Y235000D02*
Y244000D01*
X130000Y235000D02*
X150000D01*
X139500Y278000D02*
X166500D01*
X166500D02*
Y298000D01*
X130500D02*
X166500D01*
X130500Y278000D02*
X139500D01*
X130500D02*
Y298000D01*
X206000Y278000D02*
Y298000D01*
X172000D02*
X206000D01*
X172000Y278000D02*
Y298000D01*
Y278000D02*
X206000D01*
X197000Y173000D02*
X217000D01*
Y207000D01*
X197000D02*
X217000D01*
X197000Y173000D02*
Y207000D01*
X220000D02*
X240000D01*
X220000Y173000D02*
Y207000D01*
X240000Y173000D02*
Y207000D01*
X220000Y173000D02*
X240000D01*
X243000D02*
X263000D01*
Y207000D01*
X243000D02*
X263000D01*
X243000Y173000D02*
Y207000D01*
X320000Y288000D02*
X356000D01*
X320000Y308000D02*
X347000D01*
X356000D01*
Y288000D02*
Y308000D01*
X320000Y288000D02*
Y308000D01*
X297000Y250000D02*
X317000D01*
Y284000D01*
X297000Y250000D02*
Y284000D01*
X317000D01*
X297000Y208000D02*
Y244000D01*
X317000Y217000D02*
Y244000D01*
Y208000D02*
Y217000D01*
X297000Y208000D02*
X317000D01*
X297000Y244000D02*
X317000D01*
X268000Y164000D02*
X316000D01*
X268000D02*
Y196000D01*
X316000D01*
Y164000D02*
Y196000D01*
X346000Y218000D02*
Y245000D01*
X326000D02*
X346000D01*
X326000Y209000D02*
Y245000D01*
X346000Y209000D02*
Y218000D01*
X326000Y209000D02*
X346000D01*
X383000D02*
Y257000D01*
X351000Y209000D02*
X383000D01*
X351000D02*
Y257000D01*
X383000D01*
X214000Y137000D02*
X234000D01*
X214000Y103000D02*
Y137000D01*
Y103000D02*
X234000D01*
Y137000D01*
X261000Y103000D02*
Y137000D01*
X281000D01*
Y103000D02*
Y137000D01*
X261000Y103000D02*
X281000D01*
X285000Y137000D02*
X319000D01*
Y117000D02*
Y137000D01*
X285000Y117000D02*
X319000D01*
X285000D02*
Y137000D01*
X342000Y326000D02*
X362000D01*
Y360000D01*
X342000Y326000D02*
Y360000D01*
X362000D01*
X319000Y326000D02*
Y360000D01*
X339000D01*
Y326000D02*
Y360000D01*
X319000Y326000D02*
X339000D01*
X316000D02*
Y360000D01*
X296000Y326000D02*
X316000D01*
X296000D02*
Y360000D01*
X316000D01*
X267000Y322000D02*
X287000D01*
Y356000D01*
X267000D02*
X287000D01*
X267000Y322000D02*
Y356000D01*
X232000Y309000D02*
Y357000D01*
X264000D01*
Y309000D02*
Y357000D01*
X232000Y309000D02*
X264000D01*
X209000Y323000D02*
X229000D01*
Y357000D01*
X209000Y323000D02*
Y357000D01*
X229000D01*
X186000Y323000D02*
X206000D01*
Y357000D01*
X186000Y323000D02*
Y357000D01*
X206000D01*
D11*
X457460Y467775D02*
X452382D01*
X454921D01*
Y452540D01*
X457460D01*
X452382D01*
X434607Y465236D02*
X437147Y467775D01*
X442225D01*
X444764Y465236D01*
Y462697D01*
X442225Y460158D01*
X437147D01*
X434607Y457618D01*
Y455079D01*
X437147Y452540D01*
X442225D01*
X444764Y455079D01*
X429529Y467775D02*
Y452540D01*
X419372D01*
X404137Y467775D02*
X409216Y465236D01*
X414294Y460158D01*
Y455079D01*
X411755Y452540D01*
X406676D01*
X404137Y455079D01*
Y457618D01*
X406676Y460158D01*
X414294D01*
X388902Y452540D02*
X399059D01*
X388902Y462697D01*
Y465236D01*
X391441Y467775D01*
X396520D01*
X399059Y465236D01*
X383824D02*
X381285Y467775D01*
X376206D01*
X373667Y465236D01*
Y462697D01*
X376206Y460158D01*
X378745D01*
X376206D01*
X373667Y457618D01*
Y455079D01*
X376206Y452540D01*
X381285D01*
X383824Y455079D01*
X358432Y467775D02*
X363510Y465236D01*
X368589Y460158D01*
Y455079D01*
X366050Y452540D01*
X360971D01*
X358432Y455079D01*
Y457618D01*
X360971Y460158D01*
X368589D01*
X338119Y467775D02*
Y452540D01*
X330501D01*
X327962Y455079D01*
Y465236D01*
X330501Y467775D01*
X338119D01*
X315266Y452540D02*
X320344D01*
X322883Y455079D01*
Y460158D01*
X320344Y462697D01*
X315266D01*
X312727Y460158D01*
Y457618D01*
X322883D01*
X307649Y452540D02*
Y462697D01*
X305109D01*
X302570Y460158D01*
Y452540D01*
Y460158D01*
X300031Y462697D01*
X297492Y460158D01*
Y452540D01*
X289874D02*
X284796D01*
X282257Y455079D01*
Y460158D01*
X284796Y462697D01*
X289874D01*
X292413Y460158D01*
Y455079D01*
X289874Y452540D01*
X310618Y416044D02*
X295382D01*
Y408426D01*
X297922Y405887D01*
X303000D01*
X305539Y408426D01*
Y416044D01*
Y410965D02*
X310618Y405887D01*
Y400809D02*
Y395730D01*
Y398270D01*
X295382D01*
X297922Y400809D01*
Y388113D02*
X295382Y385574D01*
Y380495D01*
X297922Y377956D01*
X300461D01*
X303000Y380495D01*
X305539Y377956D01*
X308078D01*
X310618Y380495D01*
Y385574D01*
X308078Y388113D01*
X305539D01*
X303000Y385574D01*
X300461Y388113D01*
X297922D01*
X303000Y385574D02*
Y380495D01*
X253617Y136044D02*
X238382D01*
Y128426D01*
X240922Y125887D01*
X246000D01*
X248539Y128426D01*
Y136044D01*
Y130965D02*
X253617Y125887D01*
Y120809D02*
Y115730D01*
Y118270D01*
X238382D01*
X240922Y120809D01*
X238382Y108113D02*
Y97956D01*
X240922D01*
X251078Y108113D01*
X253617D01*
X335617Y416044D02*
X320382D01*
Y408426D01*
X322922Y405887D01*
X328000D01*
X330539Y408426D01*
Y416044D01*
Y410965D02*
X335617Y405887D01*
Y400809D02*
Y395730D01*
Y398270D01*
X320382D01*
X322922Y400809D01*
X335617Y380495D02*
X320382D01*
X328000Y388113D01*
Y377956D01*
X291618Y318044D02*
X276383D01*
Y310426D01*
X278922Y307887D01*
X284000D01*
X286539Y310426D01*
Y318044D01*
Y312966D02*
X291618Y307887D01*
Y302809D02*
Y297730D01*
Y300270D01*
X276383D01*
X278922Y302809D01*
X291618Y279956D02*
Y290113D01*
X281461Y279956D01*
X278922D01*
X276383Y282495D01*
Y287574D01*
X278922Y290113D01*
X315696Y95382D02*
Y110618D01*
X308078D01*
X305539Y108078D01*
Y103000D01*
X308078Y100461D01*
X315696D01*
X310618D02*
X305539Y95382D01*
X300461Y108078D02*
X297922Y110618D01*
X292843D01*
X290304Y108078D01*
Y105539D01*
X292843Y103000D01*
X290304Y100461D01*
Y97922D01*
X292843Y95382D01*
X297922D01*
X300461Y97922D01*
Y100461D01*
X297922Y103000D01*
X300461Y105539D01*
Y108078D01*
X297922Y103000D02*
X292843D01*
X409922Y235539D02*
X407382Y238078D01*
Y243157D01*
X409922Y245696D01*
X420078D01*
X422617Y243157D01*
Y238078D01*
X420078Y235539D01*
X422617Y222843D02*
X407382D01*
X415000Y230461D01*
Y220304D01*
X242696Y301618D02*
Y288922D01*
X240157Y286383D01*
X235078D01*
X232539Y288922D01*
Y301618D01*
X217304Y286383D02*
X227461D01*
X217304Y296539D01*
Y299078D01*
X219843Y301618D01*
X224922D01*
X227461Y299078D01*
X226618Y416044D02*
X211382D01*
Y408426D01*
X213922Y405887D01*
X219000D01*
X221539Y408426D01*
Y416044D01*
Y410965D02*
X226618Y405887D01*
Y400809D02*
Y395730D01*
Y398270D01*
X211382D01*
X213922Y400809D01*
X211382Y377956D02*
X213922Y383035D01*
X219000Y388113D01*
X224078D01*
X226618Y385574D01*
Y380495D01*
X224078Y377956D01*
X221539D01*
X219000Y380495D01*
Y388113D01*
X201618Y416044D02*
X186382D01*
Y408426D01*
X188922Y405887D01*
X194000D01*
X196539Y408426D01*
Y416044D01*
Y410965D02*
X201618Y405887D01*
Y400809D02*
Y395730D01*
Y398270D01*
X186382D01*
X188922Y400809D01*
X186382Y377956D02*
Y388113D01*
X194000D01*
X191461Y383035D01*
Y380495D01*
X194000Y377956D01*
X199078D01*
X201618Y380495D01*
Y385574D01*
X199078Y388113D01*
X359618Y416044D02*
X344382D01*
Y408426D01*
X346922Y405887D01*
X352000D01*
X354539Y408426D01*
Y416044D01*
Y410965D02*
X359618Y405887D01*
Y400809D02*
Y395730D01*
Y398270D01*
X344382D01*
X346922Y400809D01*
Y388113D02*
X344382Y385574D01*
Y380495D01*
X346922Y377956D01*
X349461D01*
X352000Y380495D01*
Y383035D01*
Y380495D01*
X354539Y377956D01*
X357078D01*
X359618Y380495D01*
Y385574D01*
X357078Y388113D01*
X206618Y136505D02*
X191382D01*
Y128887D01*
X193922Y126348D01*
X199000D01*
X201539Y128887D01*
Y136505D01*
Y131426D02*
X206618Y126348D01*
Y121270D02*
Y116191D01*
Y118730D01*
X191382D01*
X193922Y121270D01*
X206618Y108574D02*
Y103495D01*
Y106034D01*
X191382D01*
X193922Y108574D01*
X165618Y169696D02*
X150382D01*
Y162078D01*
X152922Y159539D01*
X158000D01*
X160539Y162078D01*
Y169696D01*
Y164618D02*
X165618Y159539D01*
Y154461D02*
Y149382D01*
Y151922D01*
X150382D01*
X152922Y154461D01*
Y141765D02*
X150382Y139226D01*
Y134147D01*
X152922Y131608D01*
X163078D01*
X165618Y134147D01*
Y139226D01*
X163078Y141765D01*
X152922D01*
X347696Y266383D02*
Y281618D01*
X340078D01*
X337539Y279078D01*
Y274000D01*
X340078Y271461D01*
X347696D01*
X342617D02*
X337539Y266383D01*
X332461Y268922D02*
X329922Y266383D01*
X324843D01*
X322304Y268922D01*
Y279078D01*
X324843Y281618D01*
X329922D01*
X332461Y279078D01*
Y276539D01*
X329922Y274000D01*
X322304D01*
X284618Y416044D02*
X269382D01*
Y408426D01*
X271922Y405887D01*
X277000D01*
X279539Y408426D01*
Y416044D01*
Y410965D02*
X284618Y405887D01*
X269382Y400809D02*
Y390652D01*
X271922D01*
X282078Y400809D01*
X284618D01*
X188617Y169696D02*
X173382D01*
Y162078D01*
X175922Y159539D01*
X181000D01*
X183539Y162078D01*
Y169696D01*
Y164618D02*
X188617Y159539D01*
X173382Y144304D02*
X175922Y149382D01*
X181000Y154461D01*
X186078D01*
X188617Y151922D01*
Y146843D01*
X186078Y144304D01*
X183539D01*
X181000Y146843D01*
Y154461D01*
X201696Y302383D02*
Y317617D01*
X194078D01*
X191539Y315078D01*
Y310000D01*
X194078Y307461D01*
X201696D01*
X196618D02*
X191539Y302383D01*
X176304Y317617D02*
X186461D01*
Y310000D01*
X181383Y312539D01*
X178843D01*
X176304Y310000D01*
Y304922D01*
X178843Y302383D01*
X183922D01*
X186461Y304922D01*
X143617Y169696D02*
X128382D01*
Y162078D01*
X130922Y159539D01*
X136000D01*
X138539Y162078D01*
Y169696D01*
Y164618D02*
X143617Y159539D01*
Y146843D02*
X128382D01*
X136000Y154461D01*
Y144304D01*
X75382Y241304D02*
X90618D01*
Y248922D01*
X88078Y251461D01*
X83000D01*
X80461Y248922D01*
Y241304D01*
Y246383D02*
X75382Y251461D01*
X88078Y256539D02*
X90618Y259078D01*
Y264157D01*
X88078Y266696D01*
X85539D01*
X83000Y264157D01*
Y261618D01*
Y264157D01*
X80461Y266696D01*
X77922D01*
X75382Y264157D01*
Y259078D01*
X77922Y256539D01*
X97382Y241304D02*
X112618D01*
Y248922D01*
X110078Y251461D01*
X105000D01*
X102461Y248922D01*
Y241304D01*
Y246382D02*
X97382Y251461D01*
Y266696D02*
Y256539D01*
X107539Y266696D01*
X110078D01*
X112618Y264157D01*
Y259078D01*
X110078Y256539D01*
X387887Y304078D02*
X390426Y306618D01*
X395505D01*
X398044Y304078D01*
Y293922D01*
X395505Y291383D01*
X390426D01*
X387887Y293922D01*
X382809Y291383D02*
X377730D01*
X380270D01*
Y306618D01*
X382809Y304078D01*
X359956Y291383D02*
X370113D01*
X359956Y301539D01*
Y304078D01*
X362495Y306618D01*
X367574D01*
X370113Y304078D01*
X323922Y193348D02*
X321382Y195887D01*
Y200965D01*
X323922Y203505D01*
X334078D01*
X336618Y200965D01*
Y195887D01*
X334078Y193348D01*
X336618Y188270D02*
Y183191D01*
Y185730D01*
X321382D01*
X323922Y188270D01*
X336618Y175574D02*
Y170495D01*
Y173034D01*
X321382D01*
X323922Y175574D01*
X243922Y405887D02*
X241383Y408426D01*
Y413505D01*
X243922Y416044D01*
X254078D01*
X256618Y413505D01*
Y408426D01*
X254078Y405887D01*
X256618Y400809D02*
Y395730D01*
Y398270D01*
X241383D01*
X243922Y400809D01*
Y388113D02*
X241383Y385574D01*
Y380495D01*
X243922Y377956D01*
X254078D01*
X256618Y380495D01*
Y385574D01*
X254078Y388113D01*
X243922D01*
X294539Y157078D02*
X297078Y159618D01*
X302157D01*
X304696Y157078D01*
Y146922D01*
X302157Y144382D01*
X297078D01*
X294539Y146922D01*
X289461Y157078D02*
X286922Y159618D01*
X281843D01*
X279304Y157078D01*
Y154539D01*
X281843Y152000D01*
X279304Y149461D01*
Y146922D01*
X281843Y144382D01*
X286922D01*
X289461Y146922D01*
Y149461D01*
X286922Y152000D01*
X289461Y154539D01*
Y157078D01*
X286922Y152000D02*
X281843D01*
X110539Y224078D02*
X113078Y226618D01*
X118157D01*
X120696Y224078D01*
Y213922D01*
X118157Y211383D01*
X113078D01*
X110539Y213922D01*
X95304Y226618D02*
X105461D01*
Y219000D01*
X100382Y221539D01*
X97843D01*
X95304Y219000D01*
Y213922D01*
X97843Y211383D01*
X102922D01*
X105461Y213922D01*
X151539Y315078D02*
X154078Y317617D01*
X159157D01*
X161696Y315078D01*
Y304922D01*
X159157Y302383D01*
X154078D01*
X151539Y304922D01*
X146461Y315078D02*
X143922Y317617D01*
X138843D01*
X136304Y315078D01*
Y312539D01*
X138843Y310000D01*
X141383D01*
X138843D01*
X136304Y307461D01*
Y304922D01*
X138843Y302383D01*
X143922D01*
X146461Y304922D01*
X66078Y251461D02*
X68618Y248922D01*
Y243843D01*
X66078Y241304D01*
X55922D01*
X53383Y243843D01*
Y248922D01*
X55922Y251461D01*
X53383Y266696D02*
Y256539D01*
X63539Y266696D01*
X66078D01*
X68618Y264157D01*
Y259078D01*
X66078Y256539D01*
X389922Y235539D02*
X387382Y238078D01*
Y243157D01*
X389922Y245696D01*
X400078D01*
X402617Y243157D01*
Y238078D01*
X400078Y235539D01*
X402617Y230461D02*
Y225382D01*
Y227922D01*
X387382D01*
X389922Y230461D01*
M02*
