G04*
G04 #@! TF.GenerationSoftware,Altium Limited,Altium Designer,23.8.1 (32)*
G04*
G04 Layer_Color=65535*
%FSLAX44Y44*%
%MOMM*%
G71*
G04*
G04 #@! TF.SameCoordinates,F9BA51D5-AC74-40FF-A976-F5FAEDCE12CC*
G04*
G04*
G04 #@! TF.FilePolarity,Positive*
G04*
G01*
G75*
%ADD10C,0.2000*%
%ADD11C,0.2540*%
D10*
X202000Y139175D02*
G03*
X202000Y132825I0J-3175D01*
G01*
X187000Y379825D02*
G03*
X187000Y386175I0J3175D01*
G01*
X202000Y139175D02*
Y156000D01*
Y116000D02*
Y132825D01*
X152000Y116000D02*
Y156000D01*
X237000Y363000D02*
Y403000D01*
X187000Y386175D02*
Y403000D01*
Y363000D02*
Y379825D01*
X376000Y39000D02*
X408000D01*
Y165000D01*
X282000Y39000D02*
X314000D01*
X376000Y165000D02*
X408000D01*
X282000Y39000D02*
Y165000D01*
X314000D01*
X146000Y137000D02*
Y146000D01*
X126000D02*
X146000D01*
X126000Y110000D02*
Y146000D01*
X146000Y110000D02*
Y137000D01*
X126000Y110000D02*
X146000D01*
Y152000D02*
Y186000D01*
X126000D02*
X146000D01*
X126000Y152000D02*
Y186000D01*
Y152000D02*
X146000D01*
X175000Y322000D02*
X184000D01*
Y342000D01*
X148000D02*
X184000D01*
X148000Y322000D02*
X175000D01*
X148000D02*
Y342000D01*
X308000Y438000D02*
X340000D01*
X308000Y312000D02*
Y438000D01*
X402000D02*
X434000D01*
X308000Y312000D02*
X340000D01*
X434000D02*
Y438000D01*
X402000Y312000D02*
X434000D01*
X210000Y128000D02*
X258000D01*
Y96000D02*
Y128000D01*
X210000Y96000D02*
X258000D01*
X210000D02*
Y128000D01*
D11*
X205540Y166540D02*
X208872D01*
X207206D01*
Y176537D01*
X205540Y174871D01*
X180540Y349540D02*
X183872D01*
X182206D01*
Y359537D01*
X180540Y357871D01*
X421540Y99157D02*
X431697D01*
X426618Y104236D02*
Y94079D01*
X444393Y106775D02*
X439314D01*
X436775Y104236D01*
Y94079D01*
X439314Y91540D01*
X444393D01*
X446932Y94079D01*
Y104236D01*
X444393Y106775D01*
X452010D02*
Y94079D01*
X454549Y91540D01*
X459628D01*
X462167Y94079D01*
Y106775D01*
X467245D02*
X477402D01*
X472324D01*
Y91540D01*
X482480D02*
X487559D01*
X485019D01*
Y106775D01*
X482480Y104236D01*
X415540Y302157D02*
X425697D01*
X420618Y307236D02*
Y297079D01*
X438393Y309775D02*
X433314D01*
X430775Y307236D01*
Y297079D01*
X433314Y294540D01*
X438393D01*
X440932Y297079D01*
Y307236D01*
X438393Y309775D01*
X446010D02*
Y297079D01*
X448549Y294540D01*
X453628D01*
X456167Y297079D01*
Y309775D01*
X461245D02*
X471402D01*
X466324D01*
Y294540D01*
X486637D02*
X476480D01*
X486637Y304697D01*
Y307236D01*
X484098Y309775D01*
X479020D01*
X476480Y307236D01*
X406697Y210236D02*
X404157Y212775D01*
X399079D01*
X396540Y210236D01*
Y200079D01*
X399079Y197540D01*
X404157D01*
X406697Y200079D01*
Y205158D01*
X401618D01*
X411775Y197540D02*
Y212775D01*
X421932Y197540D01*
Y212775D01*
X427010D02*
Y197540D01*
X434628D01*
X437167Y200079D01*
Y210236D01*
X434628Y212775D01*
X427010D01*
X54697Y275236D02*
X52158Y277775D01*
X47079D01*
X44540Y275236D01*
Y265079D01*
X47079Y262540D01*
X52158D01*
X54697Y265079D01*
Y270158D01*
X49618D01*
X59775Y262540D02*
Y277775D01*
X69932Y262540D01*
Y277775D01*
X75010D02*
Y262540D01*
X82628D01*
X85167Y265079D01*
Y275236D01*
X82628Y277775D01*
X75010D01*
X39540Y379157D02*
X49697D01*
X44618Y384236D02*
Y374079D01*
X54775Y386775D02*
Y376618D01*
X59853Y371540D01*
X64932Y376618D01*
Y386775D01*
X70010D02*
X75089D01*
X72549D01*
Y371540D01*
X70010D01*
X75089D01*
X82706D02*
Y386775D01*
X92863Y371540D01*
Y386775D01*
X233461Y145078D02*
X230922Y147618D01*
X225843D01*
X223304Y145078D01*
Y134922D01*
X225843Y132382D01*
X230922D01*
X233461Y134922D01*
X248696Y147618D02*
X243617Y145078D01*
X238539Y140000D01*
Y134922D01*
X241078Y132382D01*
X246157D01*
X248696Y134922D01*
Y137461D01*
X246157Y140000D01*
X238539D01*
X126843Y192383D02*
Y207617D01*
X134461D01*
X137000Y205078D01*
Y200000D01*
X134461Y197461D01*
X126843D01*
X131922D02*
X137000Y192383D01*
X142078D02*
X147157D01*
X144618D01*
Y207617D01*
X142078Y205078D01*
X208461Y420922D02*
Y431078D01*
X205922Y433618D01*
X200843D01*
X198304Y431078D01*
Y420922D01*
X200843Y418382D01*
X205922D01*
X203382Y423461D02*
X208461Y418382D01*
X205922D02*
X208461Y420922D01*
X223696Y418382D02*
X213539D01*
X223696Y428539D01*
Y431078D01*
X221157Y433618D01*
X216078D01*
X213539Y431078D01*
X179000Y173922D02*
Y184078D01*
X176461Y186618D01*
X171383D01*
X168843Y184078D01*
Y173922D01*
X171383Y171383D01*
X176461D01*
X173922Y176461D02*
X179000Y171383D01*
X176461D02*
X179000Y173922D01*
X184078Y171383D02*
X189157D01*
X186618D01*
Y186618D01*
X184078Y184078D01*
X360304Y468618D02*
Y453382D01*
X370461D01*
X385696D02*
X375539D01*
X385696Y463539D01*
Y466078D01*
X383157Y468618D01*
X378078D01*
X375539Y466078D01*
X335843Y191618D02*
Y176383D01*
X346000D01*
X351078D02*
X356157D01*
X353618D01*
Y191618D01*
X351078Y189078D01*
X128461Y337078D02*
X125922Y339618D01*
X120843D01*
X118304Y337078D01*
Y326922D01*
X120843Y324383D01*
X125922D01*
X128461Y326922D01*
X133539D02*
X136078Y324383D01*
X141157D01*
X143696Y326922D01*
Y337078D01*
X141157Y339618D01*
X136078D01*
X133539Y337078D01*
Y334539D01*
X136078Y332000D01*
X143696D01*
X133461Y100078D02*
X130922Y102618D01*
X125843D01*
X123304Y100078D01*
Y89922D01*
X125843Y87382D01*
X130922D01*
X133461Y89922D01*
X138539Y102618D02*
X148696D01*
Y100078D01*
X138539Y89922D01*
Y87382D01*
M02*
