G04*
G04 #@! TF.GenerationSoftware,Altium Limited,Altium Designer,23.8.1 (32)*
G04*
G04 Layer_Physical_Order=6*
G04 Layer_Color=16711680*
%FSLAX44Y44*%
%MOMM*%
G71*
G04*
G04 #@! TF.SameCoordinates,F9BA51D5-AC74-40FF-A976-F5FAEDCE12CC*
G04*
G04*
G04 #@! TF.FilePolarity,Positive*
G04*
G01*
G75*
%ADD10C,0.2000*%
%ADD14R,1.3000X0.9000*%
%ADD15R,1.3000X0.7000*%
%ADD16R,0.9000X1.3000*%
%ADD17R,0.9000X2.5000*%
%ADD18C,0.3000*%
%ADD26C,0.6000*%
%ADD27C,0.8000*%
%ADD28C,1.0000*%
%ADD29C,0.5000*%
%ADD30C,0.7000*%
%ADD32C,0.4000*%
%ADD33C,4.0000*%
%ADD34C,0.6000*%
%ADD40R,3.3000X3.3000*%
%ADD41R,0.6000X0.2300*%
%ADD42R,0.2300X0.6000*%
%ADD43R,0.9000X1.6000*%
%ADD44R,0.7000X1.3000*%
%ADD45R,2.5000X0.9000*%
G36*
X338000Y345000D02*
X295000D01*
X293000Y343000D01*
X183000D01*
Y371000D01*
X338000D01*
Y345000D01*
D02*
G37*
G36*
X146000Y257000D02*
X116000D01*
X114000Y259000D01*
Y301000D01*
X146000D01*
Y257000D01*
D02*
G37*
G36*
X219607Y244394D02*
X219392Y243143D01*
X214989Y241660D01*
X208000Y237000D01*
X115000D01*
Y248000D01*
X215000D01*
X219607Y244394D01*
D02*
G37*
G36*
X382000Y232000D02*
X331000D01*
Y240000D01*
X330707Y240293D01*
X331000Y241000D01*
X344000Y254000D01*
X382000D01*
Y232000D01*
D02*
G37*
G36*
X195000Y209000D02*
X159000D01*
Y230000D01*
X195000D01*
Y209000D01*
D02*
G37*
G36*
X382000Y198000D02*
X329000D01*
Y224000D01*
X382000D01*
Y198000D01*
D02*
G37*
G36*
X280000Y163000D02*
X224000D01*
Y188000D01*
X280000D01*
Y163000D01*
D02*
G37*
G36*
X297000Y120000D02*
X217000D01*
Y136000D01*
X231000Y150000D01*
X297000D01*
Y120000D01*
D02*
G37*
G36*
X279000Y92000D02*
X217000D01*
Y115000D01*
X279000D01*
Y92000D01*
D02*
G37*
%LPC*%
G36*
X336000Y220559D02*
X334830Y220326D01*
X333838Y219663D01*
X333837Y219663D01*
X333174Y218670D01*
X332941Y217500D01*
X333174Y216329D01*
X333837Y215337D01*
X334829Y214674D01*
X336000Y214441D01*
X337170Y214674D01*
X338163Y215337D01*
X338163Y215337D01*
X338826Y216330D01*
X339059Y217500D01*
X338826Y218671D01*
X338163Y219663D01*
X337171Y220326D01*
X336000Y220559D01*
D02*
G37*
%LPD*%
D10*
X225850Y242650D02*
X226000Y242500D01*
X216656Y244580D02*
X226000Y242500D01*
X187000Y243500D02*
X188500Y245000D01*
X139500Y244000D02*
X140000Y243500D01*
X274000Y247500D02*
X293000D01*
X305000Y235500D01*
X352000Y352500D02*
X355000D01*
X305000Y235500D02*
X309000D01*
X274000Y229000D02*
X285000Y218000D01*
X309000Y216500D02*
X312500Y220000D01*
X347500Y296000D02*
Y298000D01*
X348500Y297000D01*
X326765Y277765D02*
X329265D01*
X326000Y277000D02*
X326765Y277765D01*
X249000Y287918D02*
Y289000D01*
X252500Y274000D02*
Y284418D01*
X307000Y276500D02*
X307500Y277000D01*
X295500Y276500D02*
X307000D01*
X281500Y262500D02*
X295500Y276500D01*
X274000Y262500D02*
X281500D01*
X274000Y229000D02*
Y232500D01*
X307000Y216500D02*
X309000D01*
X249000Y287918D02*
X252500Y284418D01*
X226000Y257500D02*
X227850D01*
X224150D02*
X226000D01*
X223393Y256743D02*
X224150Y257500D01*
X222743Y256743D02*
X223393D01*
X218500Y252500D02*
X226000D01*
X218500D02*
X222743Y256743D01*
X224150Y247500D02*
X226000D01*
X223393Y248257D02*
X224150Y247500D01*
X222743Y248257D02*
X223393D01*
X218500Y252500D02*
X222743Y248257D01*
X58473Y354000D02*
X66000D01*
X336000Y217500D02*
X336000Y217500D01*
X257500Y274000D02*
Y290500D01*
X249000Y302000D02*
X249743Y301257D01*
X254000Y317500D02*
X257500Y314000D01*
X248000Y317500D02*
X254000D01*
X248000D02*
X249000Y316500D01*
X262500Y220500D02*
X271000Y212000D01*
X262500Y220500D02*
Y226000D01*
X311500Y127000D02*
Y127500D01*
X314000Y130000D01*
X282235Y230765D02*
X283000Y230000D01*
X277542Y237350D02*
X282235Y232658D01*
X221650Y270000D02*
X224000Y267650D01*
X208000Y270000D02*
X221650D01*
X219485Y274000D02*
X232500D01*
X215485Y278000D02*
X219485Y274000D01*
X215000Y278000D02*
X215485D01*
X224000Y267650D02*
X225850D01*
X226000Y267500D01*
X286432Y257350D02*
X290000Y260918D01*
X274150Y257350D02*
X286432D01*
X271500Y278000D02*
X273000D01*
X267500Y275850D02*
X267650Y276000D01*
X269500D01*
X267500Y274000D02*
Y275850D01*
X242350Y274150D02*
X242500Y274000D01*
X242350Y274150D02*
Y278200D01*
X225000Y282000D02*
X232893D01*
X237350Y277542D01*
X229315Y291235D02*
X242350Y278200D01*
X237350Y274150D02*
Y277542D01*
X247350Y274150D02*
Y281650D01*
X219000Y310000D02*
X247350Y281650D01*
X274000Y252500D02*
X299000D01*
X237350Y274150D02*
X237500Y274000D01*
X247350Y274150D02*
X247500Y274000D01*
X262500D02*
Y294175D01*
X290000Y260918D02*
Y262000D01*
X274000Y257500D02*
X274150Y257350D01*
X326000Y295500D02*
X328500Y298000D01*
X300500Y292150D02*
Y293000D01*
X303000Y295500D01*
X306000D01*
X274000Y267500D02*
X275850D01*
X257500Y216500D02*
X262000Y212000D01*
X257500Y216500D02*
Y226000D01*
X304000Y257500D02*
X307000D01*
X274000Y237500D02*
X274150Y237350D01*
X277542D01*
X282235Y230765D02*
Y232658D01*
X252650Y221836D02*
X253500Y220985D01*
X252500Y226000D02*
X252650Y225850D01*
Y221836D02*
Y225850D01*
X253500Y200000D02*
Y220985D01*
X253000Y199500D02*
X253500Y200000D01*
X242350Y225850D02*
X242500Y226000D01*
X242350Y221835D02*
Y225850D01*
X241500Y220985D02*
X242350Y221835D01*
X241500Y208000D02*
Y220985D01*
X233000Y199500D02*
X241500Y208000D01*
X230000Y199500D02*
X233000D01*
X233000Y216000D02*
X237500Y220500D01*
Y226000D01*
X225850Y232350D02*
X226000Y232500D01*
X207000Y217000D02*
X222350Y232350D01*
X225850D01*
X207000Y199500D02*
Y217000D01*
X232500Y224150D02*
Y226000D01*
X225765Y218765D02*
X227115D01*
X232500Y224150D01*
X225000Y218000D02*
X225765Y218765D01*
X242500Y226000D02*
X242500Y226000D01*
X247500Y218500D02*
Y226000D01*
X218500Y237500D02*
X226000D01*
X218500Y262500D02*
X226000D01*
X198500Y288000D02*
X198850Y287650D01*
X267500Y224150D02*
Y226000D01*
D14*
X140000Y262500D02*
D03*
Y243500D02*
D03*
X307000Y216500D02*
D03*
Y235500D02*
D03*
X336000Y236500D02*
D03*
Y217500D02*
D03*
D15*
X306000Y314500D02*
D03*
Y295500D02*
D03*
X187000Y243500D02*
D03*
Y224500D02*
D03*
X163000Y243500D02*
D03*
Y262500D02*
D03*
X207000Y199500D02*
D03*
Y180500D02*
D03*
X230000Y199500D02*
D03*
Y180500D02*
D03*
X253000Y199500D02*
D03*
Y180500D02*
D03*
X307000Y257500D02*
D03*
Y276500D02*
D03*
X224000Y110500D02*
D03*
Y129500D02*
D03*
X271000Y110500D02*
D03*
Y129500D02*
D03*
X352000Y333500D02*
D03*
Y352500D02*
D03*
X329000Y333500D02*
D03*
Y352500D02*
D03*
X306000D02*
D03*
Y333500D02*
D03*
X277000Y348500D02*
D03*
Y329500D02*
D03*
X219000Y330500D02*
D03*
Y349500D02*
D03*
X196000Y330500D02*
D03*
Y349500D02*
D03*
D16*
X158000Y288000D02*
D03*
X139000D02*
D03*
X347500Y298000D02*
D03*
X328500D02*
D03*
D17*
X307500Y180000D02*
D03*
X276500D02*
D03*
D18*
X274000Y242500D02*
X284500D01*
X249743Y298257D02*
X257500Y290500D01*
X249743Y298257D02*
Y301257D01*
D26*
X311500Y127000D02*
X312500Y126000D01*
X307500Y172000D02*
Y180000D01*
Y172000D02*
X311500Y168000D01*
X291500Y191500D02*
X304000D01*
X307500Y188000D01*
Y180000D02*
Y188000D01*
X271000Y212000D02*
X291500Y191500D01*
X214000Y294000D02*
X225000D01*
X295500Y314500D02*
X306000D01*
X285000Y304000D02*
X295500Y314500D01*
X285000Y290000D02*
Y304000D01*
X273000Y278000D02*
X285000Y290000D01*
X269500Y276000D02*
X271500Y278000D01*
X194500Y180500D02*
X207000D01*
X187000Y188000D02*
X194500Y180500D01*
X277000Y269000D02*
X301650Y293650D01*
D27*
X133500Y219000D02*
X146000D01*
X146000Y219000D01*
X355000Y352500D02*
X367000Y340500D01*
X309000Y235500D02*
X367000Y293500D01*
Y340500D01*
X285000Y218000D02*
X286500Y216500D01*
X307000D01*
X329500Y236500D02*
X336000D01*
X329265Y277765D02*
X347500Y296000D01*
X307500Y277000D02*
X326000D01*
X311500Y127500D02*
Y168000D01*
X225000Y294000D02*
X227000Y292000D01*
X196000Y312000D02*
X214000Y294000D01*
X219000Y310000D02*
Y330500D01*
X196000Y312000D02*
Y330500D01*
X163000Y262500D02*
X181500D01*
X179500Y288000D02*
X180000Y288500D01*
Y307000D01*
X299000Y252500D02*
X304000Y257500D01*
X164500Y219000D02*
Y221000D01*
X158000Y286000D02*
Y288000D01*
X163000Y262500D02*
Y281000D01*
X158000Y286000D02*
X163000Y281000D01*
X277000Y308675D02*
Y329500D01*
X306000Y295500D02*
X326000D01*
D28*
X306000Y314500D02*
Y333500D01*
X329000D02*
X352000D01*
X306000D02*
X329000D01*
D29*
X249000Y302000D02*
Y316500D01*
X198500Y279500D02*
X208000Y270000D01*
D30*
X309000Y216500D02*
X329500Y236500D01*
X198500Y279500D02*
Y288000D01*
D32*
X284500Y242500D02*
X292000Y238000D01*
X262500Y294175D02*
X277000Y308675D01*
D33*
X450000Y230000D02*
D03*
Y280000D02*
D03*
X65000Y303000D02*
D03*
X66000Y354000D02*
D03*
X450000Y180000D02*
D03*
X450000Y130000D02*
D03*
D34*
X146000Y219000D02*
D03*
X120000Y244000D02*
D03*
X285000Y218000D02*
D03*
X275000Y171000D02*
D03*
X334000Y367000D02*
D03*
X313000Y366000D02*
D03*
X326000Y277000D02*
D03*
X291000Y366000D02*
D03*
X269000Y363000D02*
D03*
X265000Y99000D02*
D03*
X249000Y289000D02*
D03*
X248000Y365000D02*
D03*
X213000Y366000D02*
D03*
X121000Y294000D02*
D03*
X122000Y279000D02*
D03*
X123000Y263000D02*
D03*
X218500Y252500D02*
D03*
X250000Y96000D02*
D03*
X184000Y177000D02*
D03*
X211000Y144000D02*
D03*
X292000Y238000D02*
D03*
X336000Y202000D02*
D03*
X193275Y423675D02*
D03*
X249000Y302000D02*
D03*
X271000Y212000D02*
D03*
X283000Y230000D02*
D03*
X233000Y216000D02*
D03*
X215000Y278000D02*
D03*
X119000Y118000D02*
D03*
X227000Y292000D02*
D03*
X225000Y282000D02*
D03*
X181500Y262500D02*
D03*
X120595Y137825D02*
D03*
X180000Y307000D02*
D03*
X187000Y188000D02*
D03*
X265000Y145000D02*
D03*
X188000Y222000D02*
D03*
X290000Y262000D02*
D03*
X262000Y212000D02*
D03*
X225000Y218000D02*
D03*
X247500Y218500D02*
D03*
X218500Y237500D02*
D03*
Y262500D02*
D03*
D40*
X250000Y250000D02*
D03*
D41*
X274000Y267500D02*
D03*
Y262500D02*
D03*
Y257500D02*
D03*
Y252500D02*
D03*
Y247500D02*
D03*
Y242500D02*
D03*
Y237500D02*
D03*
Y232500D02*
D03*
X226000D02*
D03*
Y237500D02*
D03*
Y242500D02*
D03*
Y247500D02*
D03*
Y252500D02*
D03*
Y257500D02*
D03*
Y262500D02*
D03*
Y267500D02*
D03*
D42*
X267500Y226000D02*
D03*
X262500D02*
D03*
X257500D02*
D03*
X252500D02*
D03*
X247500D02*
D03*
X242500D02*
D03*
X237500D02*
D03*
X232500D02*
D03*
Y274000D02*
D03*
X237500D02*
D03*
X242500D02*
D03*
X247500D02*
D03*
X252500D02*
D03*
X257500D02*
D03*
X262500D02*
D03*
X267500D02*
D03*
D43*
X133500Y219000D02*
D03*
X164500D02*
D03*
D44*
X179500Y288000D02*
D03*
X198500D02*
D03*
X292500Y127000D02*
D03*
X311500D02*
D03*
D45*
X367000Y248500D02*
D03*
Y217500D02*
D03*
X248000Y317500D02*
D03*
Y348500D02*
D03*
M02*
